# xmcd CD database file
#
# Track frame offsets:
#	150
#	13049
#	29700
#	42975
#	63750
#	78675
#	88201
#	106126
#	121727
#
# Disc length: 1733 seconds
#
# Revision: 0
# Processed by: cddbd v1.5.1PL0 Copyright (c) Steve Scherf et al.
# Submitted via: CDex 1.51
#
DISCID=6f06c309
DTITLE=bonbon - naomi&goro
DYEAR=2004
DGENRE=Jazz
TTITLE0=GINGERE
TTITLE1=BEAUTIFUL LOVE
TTITLE2=BON BON
TTITLE3=SUPER BOOTS
TTITLE4=HOME SWEET HOME -good night version
TTITLE5=SAMBA DE MARIA LUIZA
TTITLE6=NO CEU AZUL
TTITLE7=AFTERNOON IN THAILAND
TTITLE8=GINGERE -NA PRAIA VERSION-
EXTD=YEAR: 2004
EXTT0=
EXTT1=
EXTT2=
EXTT3=
EXTT4=
EXTT5=
EXTT6=
EXTT7=
EXTT8=
PLAYORDER=
